<?xml version="1.0" encoding="iso-8859-1"?>
<!-- Generator: Adobe Illustrator 19.0.0, SVG Export Plug-In . SVG Version: 6.00 Build 0)  -->
<svg version="1.1" id="Layer_1" xmlns="http://www.w3.org/2000/svg" xmlns:xlink="http://www.w3.org/1999/xlink" x="0px" y="0px"
	 viewBox="0 0 511.999 511.999" style="enable-background:new 0 0 511.999 511.999;" xml:space="preserve">
<path style="fill:#5CE6E6;" d="M255.611,0.054C122.236,0.054,0,105.955,0,255.888c0,142.635,115.397,255.834,255.611,255.834
	c142.601,0,255.611-115.786,255.611-255.834C511.222,108.111,390.471,0.054,255.611,0.054z"/>
<path style="fill:#99FFFF;" d="M255.611,0.054C122.235,0.054,0,105.955,0,255.888c0,142.635,115.397,255.834,255.611,255.834
	c142.599,0,255.611-115.785,255.611-255.834C511.222,108.111,390.472,0.054,255.611,0.054z M177.08,48.108
	c-20.132,27.918-35.928,66.406-45.27,111.677H55.505C80.087,108.728,123.69,68.462,177.08,48.108z M33.37,255.888
	c0-21.801,3.337-42.824,9.122-62.735h83.757c-2.558,20.022-3.893,41.045-3.893,62.735c0,21.913,1.446,43.158,4.004,63.402H42.713
	C36.707,299.158,33.37,277.912,33.37,255.888z M55.838,352.661h76.083c9.344,44.938,25.138,83.313,45.159,111.01
	C123.911,443.425,80.532,403.493,55.838,352.661z M239.149,474.793c-29.809-12.347-58.508-56.617-73.192-122.133h73.192V474.793z
	 M239.149,319.291h-79.087c-2.781-19.799-4.337-40.935-4.337-63.402c0-22.246,1.556-43.158,4.227-62.735h79.197V319.291z
	 M239.149,159.783h-73.303c14.573-65.849,43.382-110.453,73.303-122.8V159.783z M455.718,159.783h-76.305
	c-9.343-45.271-25.138-83.758-45.27-111.677C387.532,68.462,431.135,108.728,455.718,159.783z M272.074,36.984
	c29.92,12.347,58.73,56.951,73.303,122.8h-73.303V36.984z M272.074,193.153h79.197c2.671,19.577,4.227,40.488,4.227,62.735
	c0,22.469-1.556,43.603-4.337,63.402h-79.087V193.153z M272.074,474.793V352.66h73.191
	C330.582,418.175,301.883,462.447,272.074,474.793z M334.141,463.669c20.021-27.697,35.817-66.072,45.159-111.01h76.083
	C430.69,403.493,387.311,443.425,334.141,463.669z M468.509,319.291h-83.647c2.558-20.244,4.004-41.49,4.004-63.402
	c0-21.69-1.335-42.713-3.893-62.735h83.757c5.784,19.911,9.122,40.933,9.122,62.735
	C477.853,277.912,474.515,299.158,468.509,319.291z"/>
<path style="fill:#51CCCC;" d="M511.222,255.888c0-147.777-120.75-255.834-255.611-255.834v511.667
	C398.211,511.722,511.222,395.937,511.222,255.888z"/>
<path style="fill:#7AF2F2;" d="M511.222,255.888c0-147.777-120.75-255.834-255.611-255.834v511.667
	C398.211,511.722,511.222,395.937,511.222,255.888z M334.141,463.669c20.021-27.697,35.817-66.072,45.159-111.01h76.083
	C430.69,403.493,387.311,443.425,334.141,463.669z M477.853,255.888c0,22.024-3.337,43.269-9.344,63.402h-83.647
	c2.558-20.244,4.004-41.49,4.004-63.402c0-21.69-1.335-42.713-3.893-62.735h83.757C474.515,213.064,477.853,234.086,477.853,255.888
	z M455.718,159.783h-76.305c-9.343-45.271-25.138-83.758-45.27-111.677C387.532,68.462,431.135,108.728,455.718,159.783z
	 M272.074,36.984c29.92,12.347,58.73,56.951,73.303,122.8h-73.303V36.984z M272.074,193.153h79.197
	c2.671,19.577,4.227,40.488,4.227,62.735c0,22.469-1.556,43.603-4.337,63.402h-79.087V193.153z M272.074,352.661h73.191
	c-14.684,65.516-43.382,109.786-73.192,122.133V352.661H272.074z"/>
<path style="fill:#5FD382;" d="M368.125,478.178c-10.113-4.84-18.923-10.993-26.211-18.298
	c-33.447-33.326-36.193-94.948-28.102-133.131c1.39-6.517,6.55-11.634,13.09-12.926c3.574-0.712,88.138-16.788,132.957,28.166
	c32.669,32.669,35.842,90.49,28.296,131.915c-0.934,6.995-6.225,12.753-13.307,14.143
	C447.007,493.592,401.014,493.82,368.125,478.178z"/>
<path style="fill:#36B39A;" d="M495.314,511.945c-4.258,0-8.516-1.618-11.775-4.861l-23.691-23.582
	c-0.392-0.386-0.75-0.793-1.097-1.211l-62.764-62.649c-6.528-6.507-6.528-17.076-0.022-23.593
	c6.507-6.528,17.065-6.539,23.593-0.022l63.849,63.736c0.38,0.38,0.739,0.771,1.076,1.173l22.605,22.501
	c6.528,6.501,6.55,17.065,0.055,23.593C503.873,510.304,499.594,511.945,495.314,511.945z"/>
<g>
</g>
<g>
</g>
<g>
</g>
<g>
</g>
<g>
</g>
<g>
</g>
<g>
</g>
<g>
</g>
<g>
</g>
<g>
</g>
<g>
</g>
<g>
</g>
<g>
</g>
<g>
</g>
<g>
</g>
</svg>
