<?xml version="1.0" standalone="no"?>
<!DOCTYPE svg PUBLIC "-//W3C//DTD SVG 20010904//EN"
 "http://www.w3.org/TR/2001/REC-SVG-20010904/DTD/svg10.dtd">
<svg version="1.0" xmlns="http://www.w3.org/2000/svg"
 width="8000.000000pt" height="4571.000000pt" viewBox="0 0 8000.000000 4571.000000"
 preserveAspectRatio="xMidYMid meet">
<metadata>
Created by potrace 1.16, written by Peter Selinger 2001-2019
</metadata>
<g transform="translate(0.000000,4571.000000) scale(0.100000,-0.100000)"
fill="#000000" stroke="none">
<path d="M39055 38929 c-165 -24 -278 -81 -394 -197 -56 -56 -102 -92 -140
-110 -135 -63 -250 -229 -292 -422 -27 -124 -22 -363 9 -478 11 -41 23 -76 25
-79 7 -6 44 76 77 170 14 42 29 74 33 71 3 -4 20 5 36 19 17 14 44 28 61 32
37 8 39 25 3 25 -26 0 -93 -38 -93 -52 0 -5 -4 -8 -8 -8 -11 0 6 202 24 286
17 80 78 211 122 263 l28 33 13 -43 c7 -24 29 -75 48 -114 149 -297 417 -467
783 -497 l35 -3 6 57 c11 102 83 166 177 155 79 -9 135 -75 147 -172 13 -99
-40 -197 -114 -211 -17 -4 -33 -9 -35 -13 -2 -3 -7 -40 -10 -81 -16 -175 -76
-314 -188 -436 l-37 -40 -7 -121 -7 -120 57 -5 c31 -3 58 -7 61 -10 3 -3 13
-57 22 -119 19 -141 22 -474 5 -536 -16 -55 -53 -97 -101 -117 -36 -14 -43
-14 -77 0 -59 25 -119 23 -146 -4 -22 -21 -23 -33 -29 -190 -3 -92 -7 -168 -8
-169 -16 -24 -51 -43 -80 -43 -42 0 -75 20 -121 73 -18 21 -46 45 -61 53 -39
19 -113 17 -179 -6 -30 -11 -65 -19 -77 -20 -22 0 -63 42 -63 65 0 7 25 61 55
120 57 111 69 169 41 197 -7 8 -39 20 -69 27 -99 22 -130 78 -110 197 13 75
50 160 123 283 79 133 103 158 174 176 32 8 60 16 62 17 2 3 7 85 5 105 -1 7
-18 15 -38 18 -61 10 -204 55 -253 80 -79 40 -169 113 -214 175 l-44 60 -42
-107 c-83 -216 -130 -433 -130 -604 l0 -84 -100 -93 c-173 -162 -367 -404
-503 -627 -73 -121 -187 -349 -228 -457 l-32 -88 -1099 0 c-604 0 -1098 -1
-1098 -3 0 -3 239 -912 449 -1708 62 -236 81 -321 81 -372 l0 -67 214 0 213 0
-92 -92 c-203 -205 -339 -447 -435 -773 -101 -347 -140 -674 -140 -1188 -1
-623 58 -1195 226 -2187 36 -212 68 -403 70 -425 3 -22 14 -95 26 -163 l22
-123 37 -20 c76 -38 227 -70 364 -76 159 -7 274 6 468 53 l147 36 0 51 c0 29
-4 111 -9 182 -37 512 -51 1208 -31 1510 14 216 33 415 39 415 3 0 14 -64 24
-142 60 -492 170 -1038 385 -1902 l27 -109 43 -19 c24 -11 87 -31 140 -45 87
-24 116 -26 277 -27 134 0 203 4 270 17 107 21 277 66 286 75 4 4 -2 61 -12
127 -75 474 -129 1128 -129 1555 0 810 139 1322 442 1632 113 115 221 182 373
231 110 36 147 43 394 78 414 58 537 98 758 245 130 86 259 205 348 319 202
261 285 523 311 978 l7 118 56 36 c371 237 621 559 712 919 64 255 60 491 -12
779 -42 166 -148 407 -250 572 -60 96 -196 276 -267 354 l-61 66 -2 119 c-5
374 -140 839 -364 1259 -117 219 -198 385 -275 570 -135 318 -234 482 -384
631 -87 87 -114 107 -196 147 -167 82 -367 113 -555 86z m603 -5313 c27 -30
59 -76 71 -102 32 -66 52 -175 49 -253 l-3 -66 -140 1 c-77 0 -359 1 -628 2
l-487 2 26 53 c42 82 153 185 254 234 133 66 314 103 501 103 64 0 90 6 175
39 54 22 106 40 115 40 10 1 39 -23 67 -53z"/>
<path d="M59646 38738 c-107 -141 -279 -656 -377 -1128 -37 -180 -46 -254 -75
-645 -6 -81 -10 -99 -18 -74 -43 150 -168 451 -305 734 -195 401 -365 665
-430 665 -54 0 -26 -148 80 -425 180 -473 494 -1071 618 -1177 l39 -33 4 -247
c2 -137 0 -248 -4 -248 -5 0 -8 5 -8 12 0 21 -105 197 -212 358 -319 479 -693
910 -787 910 -79 0 60 -281 325 -660 285 -408 617 -790 685 -790 12 0 20 -45
38 -232 12 -128 25 -243 28 -255 9 -38 -10 -25 -62 43 -104 135 -551 558 -800
755 -170 135 -345 239 -380 225 -21 -7 -19 -39 5 -85 110 -217 923 -970 1190
-1103 36 -17 67 -33 68 -34 2 -1 12 -62 22 -136 11 -73 28 -189 39 -258 11
-68 18 -127 15 -130 -3 -3 -14 7 -25 21 -48 67 -375 321 -651 506 -340 229
-588 363 -685 371 -50 4 -53 3 -53 -18 0 -83 308 -346 755 -645 298 -200 533
-332 638 -359 l52 -13 14 -79 c8 -43 31 -162 51 -264 21 -102 36 -186 35 -188
-1 -2 -42 24 -91 57 -158 106 -483 275 -789 411 -289 127 -479 190 -576 190
-51 0 -59 -3 -59 -19 0 -28 32 -63 107 -119 281 -208 1118 -606 1375 -653 l66
-12 27 -136 c31 -159 64 -371 58 -371 -3 0 -30 20 -61 44 -214 168 -912 515
-1267 631 -192 63 -265 69 -265 23 0 -67 286 -250 725 -464 359 -175 711 -310
825 -317 27 -2 51 -5 53 -8 11 -11 34 -519 24 -519 -3 0 -41 25 -84 56 -384
276 -1373 713 -1482 655 -31 -17 -26 -37 23 -84 202 -197 1225 -691 1480 -715
l59 -5 -6 -136 c-9 -185 -56 -511 -77 -535 -5 -4 -13 1 -19 13 -29 53 -353
281 -651 458 -318 189 -642 344 -774 373 -189 41 -59 -115 289 -347 402 -269
989 -573 1105 -573 23 0 30 -4 30 -19 0 -18 -59 -232 -75 -273 -6 -16 -1 -18
42 -18 l50 0 31 108 c17 59 35 123 40 142 l8 35 125 7 c222 12 684 114 1072
238 253 80 402 142 475 197 34 26 42 57 16 67 -33 13 -214 5 -332 -14 -388
-63 -1039 -248 -1256 -357 -37 -19 -70 -33 -72 -31 -2 2 5 51 16 109 21 117
45 323 55 472 l7 97 41 0 c213 0 1214 452 1492 672 63 50 94 96 74 109 -55 35
-292 -32 -634 -179 -401 -172 -848 -414 -935 -506 -14 -14 -28 -26 -31 -26 -3
0 -9 89 -12 198 -4 108 -10 233 -13 277 l-6 80 108 34 c125 39 500 225 739
365 399 235 662 435 653 499 -8 57 -188 2 -503 -155 -356 -178 -807 -457 -946
-585 -31 -29 -59 -53 -62 -53 -2 0 -10 37 -16 83 -15 104 -47 286 -65 374 -15
71 -14 83 10 83 25 0 124 55 254 140 413 273 970 752 1050 904 89 167 -175 44
-605 -281 -289 -219 -573 -465 -676 -586 -34 -39 -65 -73 -68 -75 -4 -1 -19
62 -34 140 -15 79 -38 199 -51 267 l-24 123 22 6 c172 45 963 650 1207 924
161 181 141 243 -48 147 -230 -116 -721 -489 -1022 -775 -63 -60 -127 -126
-142 -147 -15 -21 -30 -33 -34 -27 -6 9 -65 387 -79 505 l-6 50 87 42 c319
151 1144 827 1236 1012 14 30 24 58 21 62 -11 19 -73 8 -140 -25 -205 -98
-610 -396 -953 -702 -131 -116 -251 -238 -251 -256 0 -4 -4 -8 -9 -8 -10 0
-17 47 -36 270 -8 96 -17 194 -20 218 -4 37 -2 42 15 42 46 0 270 135 485 293
481 353 910 762 869 828 -11 19 -81 3 -158 -35 -292 -144 -990 -703 -1194
-956 -11 -14 -22 -23 -25 -20 -3 3 -8 124 -12 270 l-7 265 48 21 c173 74 774
636 1051 984 124 155 170 243 141 267 -32 27 -152 -44 -349 -208 -247 -204
-790 -770 -856 -891 l-18 -33 -3 55 c-4 65 22 227 50 319 11 36 51 140 88 231
86 209 118 310 190 595 93 370 137 657 112 740 -12 43 -44 44 -76 3z"/>
<path d="M23481 38259 c-54 -89 -81 -324 -88 -769 -5 -344 -5 -362 22 -575 22
-177 26 -246 22 -355 -4 -125 -29 -280 -45 -280 -4 0 -16 28 -26 63 -11 34
-70 161 -131 282 -245 485 -551 953 -682 1045 -150 104 -20 -265 272 -776 197
-344 366 -595 473 -703 54 -54 62 -68 57 -90 -23 -105 -142 -481 -152 -481 -6
0 -14 13 -18 28 -17 80 -241 429 -472 737 -229 305 -424 520 -510 562 -133 66
-47 -152 213 -538 260 -387 615 -818 718 -874 20 -11 36 -22 36 -25 0 -25
-179 -490 -188 -490 -4 0 -15 21 -26 46 -44 108 -249 422 -452 694 -252 338
-504 598 -559 576 -82 -31 198 -508 593 -1009 138 -175 286 -340 347 -387 l54
-41 -33 -77 c-37 -85 -129 -294 -171 -386 l-26 -60 -56 105 c-195 368 -701
1032 -897 1176 -134 99 -138 19 -10 -217 186 -344 737 -1066 876 -1148 15 -9
28 -22 28 -29 0 -13 -231 -486 -235 -481 -2 2 -30 55 -63 120 -149 290 -611
915 -825 1114 -122 114 -186 135 -173 56 37 -218 747 -1210 985 -1375 l25 -17
-82 -167 c-45 -93 -94 -199 -110 -237 -15 -38 -33 -71 -38 -73 -6 -2 -17 11
-26 30 -91 191 -872 969 -1108 1104 -153 87 -159 11 -15 -182 102 -137 236
-285 450 -500 269 -269 514 -479 621 -533 l42 -21 -50 -138 c-27 -76 -64 -194
-83 -262 -33 -118 -41 -140 -48 -130 -2 2 -15 23 -29 45 -150 234 -962 922
-1233 1045 -48 22 -94 24 -101 4 -27 -69 321 -428 751 -776 236 -192 469 -350
552 -376 39 -12 52 -21 49 -32 -28 -99 -78 -410 -92 -578 -3 -46 -11 -83 -15
-83 -5 0 -9 4 -9 9 0 16 -158 138 -305 235 -256 170 -544 334 -805 460 -315
151 -472 163 -343 25 210 -225 1250 -819 1434 -819 l29 0 0 -65 0 -65 44 0 45
0 3 51 3 52 95 3 c129 4 351 43 615 109 491 121 893 265 972 347 25 27 26 29
10 45 -33 33 -211 22 -462 -28 -414 -82 -1033 -275 -1176 -365 -21 -13 -41
-24 -44 -24 -18 0 21 322 63 528 l27 132 190 4 c230 4 462 35 817 106 460 94
737 188 726 248 -14 72 -424 47 -968 -59 -308 -60 -599 -138 -692 -185 l-50
-25 7 33 c13 59 82 280 118 378 32 87 37 95 58 91 64 -9 309 -2 429 13 396 49
963 170 1157 245 153 60 188 103 103 129 -151 46 -932 -67 -1415 -205 -97 -27
-214 -71 -229 -84 -6 -5 -16 -9 -23 -9 -15 0 21 87 127 307 l78 162 74 -6
c244 -18 1119 135 1446 253 167 60 218 104 160 135 -29 16 -202 20 -328 8
-363 -34 -1032 -166 -1218 -242 -34 -13 -62 -21 -62 -17 0 5 53 115 118 245
l118 236 75 4 c94 5 373 76 619 156 607 200 1010 396 965 469 -10 16 -153 11
-250 -9 -367 -78 -1151 -361 -1306 -472 -17 -12 -32 -19 -35 -16 -3 3 24 69
59 148 35 79 83 187 106 239 l41 95 65 13 c215 41 905 373 1261 608 149 98
226 168 222 203 -3 24 -6 26 -54 25 -57 -2 -162 -33 -309 -92 -329 -132 -853
-406 -1043 -547 -35 -25 -66 -45 -68 -42 -2 2 9 35 25 74 15 38 55 141 87 229
32 87 63 162 69 166 5 4 20 8 31 8 79 0 483 273 829 560 268 223 474 426 513
507 77 160 -239 0 -683 -346 -194 -151 -406 -333 -523 -448 -62 -62 -115 -113
-117 -113 -2 0 2 15 10 33 17 40 125 414 125 432 0 8 16 19 36 25 158 53 840
813 1058 1180 47 80 77 156 69 177 -24 63 -222 -94 -502 -397 -217 -236 -501
-591 -569 -712 -29 -51 -46 -63 -37 -25 30 129 77 376 89 472 61 466 35 1260
-47 1425 -12 24 -27 46 -34 48 -7 2 -21 -11 -32 -29z"/>
<path d="M38720 37513 c-8 -3 -27 -17 -42 -31 -33 -30 -40 -95 -12 -106 36
-14 74 -5 109 25 70 62 30 143 -55 112z"/>
<path d="M57860 32282 c0 -65 180 -237 481 -459 l96 -71 214 -7 214 -7 -80 58
c-285 206 -629 415 -787 478 -80 31 -138 35 -138 8z"/>
<path d="M36340 27783 c-92 -13 -226 -12 -382 3 -36 4 -83 3 -103 0 l-37 -7
46 -47 c53 -54 113 -160 103 -185 -12 -32 -37 -17 -67 42 -16 33 -57 87 -90
121 l-61 63 -75 -13 c-41 -7 -74 -15 -74 -17 0 -2 24 -27 53 -56 55 -56 104
-145 94 -171 -12 -31 -36 -15 -68 44 -29 54 -57 85 -128 143 -27 22 -32 21
-92 -4 l-49 -21 41 -30 c71 -51 123 -157 84 -172 -10 -3 -26 12 -49 48 -18 29
-54 70 -80 90 l-45 38 -34 -21 c-47 -29 -121 -110 -146 -159 -31 -61 -28 -104
10 -136 l30 -26 537 6 c295 2 583 7 639 10 l102 6 11 31 c21 60 23 159 6 245
-20 98 -55 193 -70 191 -6 -1 -54 -8 -106 -16z"/>
<path d="M37810 27783 c-92 -13 -226 -12 -382 3 -36 4 -81 4 -100 0 l-34 -6
47 -51 c52 -56 103 -148 97 -176 -2 -10 -11 -19 -20 -21 -12 -2 -25 14 -45 54
-15 32 -56 87 -90 122 l-63 65 -75 -13 c-41 -7 -75 -15 -75 -17 0 -2 24 -27
53 -56 53 -52 101 -135 95 -165 -2 -9 -11 -18 -20 -20 -12 -2 -25 13 -45 54
-27 56 -132 164 -159 164 -7 0 -33 -9 -59 -20 l-47 -20 50 -48 c27 -26 60 -67
72 -91 20 -41 21 -45 5 -60 -18 -18 -19 -17 -68 58 -12 19 -43 52 -69 74 l-48
40 -40 -28 c-53 -37 -114 -104 -139 -154 -30 -57 -27 -96 8 -132 l29 -29 529
5 c290 3 578 8 639 11 l110 6 13 31 c22 58 25 157 7 246 -21 102 -53 191 -69
190 -7 -1 -55 -8 -107 -16z"/>
<path d="M62435 26353 c-860 -33 -1638 -319 -2297 -846 -140 -111 -454 -426
-566 -567 -222 -280 -373 -511 -502 -765 -272 -536 -410 -1114 -410 -1727 0
-934 323 -1847 917 -2593 111 -139 350 -384 493 -505 367 -312 730 -519 1215
-693 350 -126 533 -174 835 -219 137 -20 193 -23 480 -23 287 0 343 3 480 23
680 101 1278 343 1839 745 192 138 358 281 552 477 l186 188 29 -23 c16 -12
108 -79 204 -148 l175 -125 45 8 c63 12 100 -9 100 -57 0 -19 6 -23 28 -23 35
0 62 -27 62 -62 0 -21 5 -25 29 -25 39 0 59 -17 67 -59 3 -19 10 -31 15 -29
19 13 58 -9 73 -39 11 -25 96 -92 328 -261 359 -262 443 -324 513 -375 53 -39
674 -493 1430 -1044 248 -181 464 -339 480 -352 56 -44 1155 -850 1307 -958
67 -48 63 -20 48 -311 -10 -210 -14 -308 -35 -845 -14 -362 -17 -444 -35
-1050 -21 -682 -31 -1761 -20 -2351 19 -1145 75 -1879 191 -2529 18 -96 33
-198 34 -226 1 -27 21 -116 45 -197 l43 -146 46 -15 c274 -87 570 -115 861
-82 135 16 278 41 288 51 2 2 -5 104 -17 227 -36 388 -44 651 -38 1262 10
1012 86 2014 247 3231 70 527 231 1568 246 1584 1 2 59 -38 128 -89 79 -57
128 -100 131 -113 2 -12 14 -85 25 -162 70 -471 366 -2254 536 -3230 41 -236
90 -518 109 -625 35 -204 65 -373 166 -930 105 -583 136 -762 159 -895 13 -71
26 -139 30 -151 10 -26 109 -64 230 -89 126 -26 369 -17 500 18 104 28 265 93
348 139 l52 30 0 66 c1 83 8 292 20 572 12 296 12 1365 0 1760 -12 392 -38
1040 -45 1130 -2 36 -7 115 -10 175 -3 61 -8 144 -10 185 -3 41 -14 217 -25
390 -24 377 -42 605 -75 960 -14 146 -30 315 -35 377 -63 713 -240 1929 -366
2511 -14 66 -24 146 -24 192 0 89 -29 200 -84 327 -20 45 -41 104 -48 132 -11
51 -11 52 36 146 220 441 278 968 177 1624 -59 384 -198 749 -414 1091 -144
228 -379 510 -548 660 -46 40 -94 88 -107 106 -59 87 -215 150 -452 185 -74
10 -90 17 -134 51 -98 78 -204 118 -312 118 -62 0 -135 -20 -164 -44 -9 -8
-54 -16 -110 -20 -82 -6 -99 -11 -128 -34 -253 -206 -398 -279 -478 -240 -41
19 -72 71 -79 134 -4 29 -11 54 -16 54 -20 0 -156 -55 -178 -71 -18 -15 -41
-19 -95 -19 -163 -1 -313 -58 -407 -157 -31 -32 -60 -65 -65 -74 -5 -9 -38
-30 -74 -46 -86 -40 -168 -102 -205 -157 -24 -35 -88 -82 -335 -245 -495 -326
-663 -427 -935 -561 -422 -207 -825 -325 -1313 -385 -190 -23 -562 -38 -726
-30 l-146 7 -172 127 c-95 69 -305 222 -465 339 -161 117 -293 217 -293 221 0
4 30 57 66 117 278 461 465 1022 515 1549 14 143 17 469 6 615 -19 255 -97
683 -167 925 -188 644 -491 1157 -959 1625 -320 319 -665 563 -1085 766 -519
251 -1050 385 -1636 413 -188 9 -201 9 -325 4z m540 -603 c492 -44 988 -210
1403 -470 358 -224 718 -558 979 -908 691 -925 830 -2110 378 -3213 -376 -919
-1141 -1655 -2035 -1960 -570 -195 -1114 -225 -1744 -98 -287 59 -518 136
-771 258 -528 255 -975 636 -1322 1127 -420 594 -635 1351 -601 2112 41 906
486 1765 1228 2367 534 434 1188 708 1855 779 155 17 478 20 630 6z m7385
-7222 c-17 -297 -17 -945 -1 -1176 8 -101 12 -185 9 -187 -2 -2 -120 82 -263
186 -143 105 -311 227 -374 272 -62 45 -308 223 -545 396 -237 173 -472 344
-523 380 -51 36 -92 70 -92 74 -1 5 34 5 77 1 129 -13 485 -8 644 10 361 41
697 122 988 240 47 19 87 33 89 31 2 -2 -2 -104 -9 -227z m1619 -1975 c64 -45
137 -132 153 -186 11 -36 9 -44 -26 -115 -62 -126 -144 -239 -262 -362 -61
-63 -138 -146 -171 -185 -137 -161 -241 -249 -285 -243 -18 2 -24 10 -26 39
-3 31 5 45 59 110 58 70 159 211 159 224 0 3 -50 -39 -111 -92 -123 -109 -264
-208 -321 -225 -43 -13 -68 0 -68 36 0 29 11 41 102 114 70 57 248 238 248
253 0 4 -70 -40 -156 -98 -174 -117 -288 -176 -331 -171 -23 2 -29 8 -31 35
-4 37 -10 31 148 144 137 97 263 199 256 206 -3 3 -68 -18 -146 -46 -172 -63
-240 -81 -302 -81 -56 0 -67 14 -48 60 8 20 23 33 49 41 43 14 234 118 312
170 52 35 199 182 199 198 0 5 -31 30 -70 57 -38 27 -70 52 -70 55 0 14 128
34 375 59 126 13 201 27 223 40 28 17 83 3 141 -37z"/>
<path d="M13847 26103 c-25 -24 4 -115 75 -232 183 -308 675 -918 857 -1065
18 -15 31 -29 29 -31 -3 -3 -31 4 -64 15 -32 12 -131 41 -219 66 -88 25 -168
47 -178 50 -9 3 -24 21 -32 41 -25 58 -105 151 -282 323 -387 378 -886 758
-1044 795 -66 16 -49 -57 40 -169 69 -86 329 -339 502 -486 234 -201 513 -412
572 -433 6 -2 9 -7 5 -11 -3 -4 -96 11 -205 33 -331 68 -413 75 -873 76 -270
0 -447 -4 -530 -13 -379 -40 -461 -116 -185 -171 171 -34 334 -45 705 -45 326
-1 369 1 520 23 205 31 386 33 515 7 50 -10 94 -22 99 -26 4 -5 -7 -13 -25
-18 -172 -49 -671 -318 -1014 -545 -268 -178 -396 -300 -356 -340 15 -15 112
5 216 45 110 42 468 225 650 333 306 180 574 368 645 453 l34 39 85 -22 c125
-32 431 -127 431 -134 0 -3 -21 -15 -48 -25 -204 -84 -773 -485 -1097 -774
-158 -140 -230 -246 -180 -265 20 -8 107 19 177 54 279 141 841 550 1110 808
81 77 107 108 143 168 1 2 189 -66 392 -143 57 -22 103 -42 103 -45 0 -4 -19
-14 -42 -24 -192 -75 -828 -529 -1102 -786 -97 -91 -176 -190 -176 -220 0 -16
8 -19 43 -19 124 0 597 302 1053 671 129 105 288 255 322 304 l20 30 184 -80
c247 -106 328 -144 328 -153 0 -5 -16 -14 -35 -21 -48 -17 -269 -152 -420
-256 -484 -334 -855 -660 -855 -754 0 -22 3 -23 47 -18 144 16 687 370 1103
720 124 104 247 224 268 262 12 22 -11 32 340 -140 l164 -80 -104 -52 c-272
-135 -896 -594 -1118 -822 -132 -136 -155 -200 -67 -188 206 28 1205 746 1369
985 l16 23 166 -80 c91 -44 200 -94 241 -112 41 -17 75 -34 75 -37 0 -4 -22
-19 -48 -33 -46 -26 -203 -153 -319 -258 -127 -115 -440 -433 -545 -552 -176
-202 -284 -365 -262 -400 18 -30 111 11 233 103 308 233 907 853 1008 1045 16
29 33 53 39 53 5 0 80 -24 165 -53 85 -30 200 -67 257 -82 56 -16 102 -31 102
-35 0 -3 -15 -13 -32 -22 -121 -58 -562 -535 -842 -908 -201 -269 -278 -428
-210 -438 137 -20 1065 1047 1145 1316 9 31 16 41 28 37 79 -24 413 -77 578
-91 l83 -7 -47 -51 c-197 -219 -635 -971 -746 -1283 -89 -249 0 -243 193 12
261 346 690 1147 690 1288 l0 24 193 6 c175 6 319 18 405 33 31 6 32 8 32 51
l0 46 -47 -7 c-141 -19 -246 -27 -394 -29 l-164 -2 3 42 c13 157 -122 765
-263 1188 -117 351 -202 512 -247 467 -23 -23 -14 -237 17 -397 83 -440 293
-1126 385 -1255 11 -15 20 -31 20 -35 0 -23 -637 67 -661 93 -4 4 -3 33 0 66
16 133 -34 553 -110 931 -107 534 -223 830 -277 710 -19 -41 -14 -285 8 -462
60 -476 211 -1124 282 -1210 8 -9 6 -13 -3 -13 -28 0 -360 105 -472 149 -26
10 -27 13 -20 48 28 131 -16 525 -113 1018 -27 135 -101 426 -129 505 -35 96
-83 187 -103 195 -100 38 -53 -532 99 -1208 42 -187 107 -405 141 -470 11 -22
18 -41 15 -43 -4 -5 -245 103 -377 169 l-85 42 -1 140 c-3 336 -147 1107 -264
1411 -51 135 -84 174 -118 140 -15 -14 -17 -41 -16 -189 0 -174 11 -277 60
-577 44 -273 131 -648 179 -775 14 -37 24 -70 22 -72 -2 -1 -113 50 -246 115
-227 110 -242 118 -238 141 11 57 -28 243 -103 496 -161 537 -389 1068 -488
1133 -23 15 -25 15 -39 -4 -41 -53 27 -367 171 -789 105 -310 224 -603 297
-728 21 -38 39 -70 39 -72 0 -2 -78 31 -172 74 -95 42 -206 90 -245 107 -68
27 -73 31 -79 64 -36 224 -363 913 -611 1288 -88 134 -181 236 -209 230 -33
-7 -23 -113 24 -248 115 -329 458 -995 615 -1194 38 -48 57 -53 -228 56 l-219
83 -8 38 c-17 84 -139 279 -345 552 -348 462 -725 850 -776 798z"/>
<path d="M18877 25033 c-50 -90 69 -556 283 -1108 67 -173 156 -375 172 -390
7 -7 9 17 4 80 -3 50 -7 189 -8 309 -1 147 -6 231 -14 256 -85 247 -199 524
-277 674 -69 132 -141 212 -160 179z"/>
<path d="M70995 24067 c-167 -56 -263 -165 -273 -313 -7 -111 48 -262 133
-361 l33 -39 -14 -60 c-7 -32 -14 -92 -14 -132 0 -80 19 -212 30 -212 4 0 10
28 13 63 6 64 53 210 83 255 12 19 21 23 42 18 15 -4 126 -11 247 -16 241 -9
321 -23 419 -70 89 -42 162 -114 254 -247 45 -65 104 -143 130 -173 l49 -54
43 37 c48 41 90 53 156 43 l44 -6 -6 58 c-23 225 -75 455 -128 576 -83 188
-239 324 -411 358 -54 11 -65 17 -130 83 -82 83 -162 134 -277 177 -75 28 -96
32 -218 35 -120 3 -143 1 -205 -20z"/>
<path d="M30221 23545 c-50 -117 -122 -218 -232 -326 -64 -63 -119 -109 -136
-113 -51 -13 -167 -74 -211 -111 -133 -114 -164 -270 -92 -465 26 -74 28 -87
19 -129 -14 -62 -3 -167 28 -266 14 -44 27 -81 28 -83 2 -2 22 10 46 27 61 45
128 44 197 -3 l50 -33 50 106 c27 58 55 130 62 160 17 71 8 176 -18 227 l-21
41 52 -10 c82 -15 230 -3 322 27 96 31 163 68 230 128 44 39 59 46 135 61 47
9 95 20 107 23 38 10 117 -106 210 -311 l18 -40 3 85 c4 104 -10 183 -49 270
l-30 65 54 56 c77 79 101 144 101 274 0 76 -5 118 -23 174 -21 70 -23 73 -49
68 -63 -13 -150 -53 -223 -103 -51 -34 -79 -48 -79 -39 0 40 -93 255 -110 255
-4 0 -27 -30 -49 -67 -52 -81 -164 -233 -173 -233 -3 0 -12 17 -19 38 -28 86
-147 302 -167 302 -4 0 -18 -25 -31 -55z"/>
<path d="M52682 23543 c-32 -87 -44 -140 -51 -223 l-6 -74 -71 94 c-39 52 -80
110 -90 128 -10 17 -21 32 -25 32 -25 0 -102 -132 -115 -195 l-5 -30 -137 0
c-115 -1 -149 -4 -214 -24 -51 -16 -78 -29 -78 -38 0 -33 79 -162 137 -223
l61 -65 -25 -75 c-20 -58 -27 -102 -30 -195 -4 -82 -2 -117 5 -110 6 6 30 55
54 111 24 55 59 122 78 150 18 27 34 50 34 51 1 1 33 -7 71 -18 39 -11 103
-22 144 -26 68 -6 79 -10 135 -52 181 -137 398 -164 609 -76 14 6 13 0 -8 -42
-40 -77 -51 -164 -32 -258 18 -84 60 -184 103 -240 24 -31 29 -34 43 -21 52
45 145 60 200 31 l28 -14 7 46 c3 25 6 79 6 120 0 66 4 83 40 156 77 161 91
322 37 440 -30 66 -109 150 -181 192 -54 31 -167 75 -195 75 -10 0 -40 21 -67
46 -27 25 -107 87 -178 137 -138 98 -217 170 -238 218 -7 16 -16 29 -19 29 -4
0 -16 -26 -27 -57z"/>
<path d="M19321 23158 c-8 -18 -34 -73 -57 -123 -140 -301 -342 -890 -388
-1134 -17 -91 -21 -188 -7 -210 14 -22 48 -3 87 47 75 97 249 486 358 800 l36
104 -1 171 c-1 95 -4 218 -8 275 -6 100 -6 102 -20 70z"/>
<path d="M43460 23130 c-151 -26 -272 -140 -322 -303 -17 -59 -20 -86 -16
-195 4 -92 11 -145 26 -192 l22 -65 -79 -80 c-305 -309 -494 -831 -550 -1520
-24 -294 -22 -758 4 -1025 3 -25 12 -119 21 -210 9 -91 18 -167 21 -170 2 -3
9 2 14 11 53 95 263 317 389 410 41 31 113 78 160 105 47 27 109 68 139 92 68
54 132 87 236 123 l80 27 -2 79 c-1 43 -3 103 -3 133 l-1 55 -65 44 c-104 70
-199 197 -265 356 l-38 90 -53 5 c-29 3 -67 13 -85 23 -76 41 -129 151 -121
255 9 116 67 183 167 190 98 7 171 -46 207 -151 18 -53 7 -53 143 9 384 178
624 513 648 905 3 54 9 99 13 99 4 0 34 -19 66 -43 82 -60 163 -170 229 -312
133 -283 164 -339 230 -415 37 -41 71 -77 77 -79 15 -5 2 188 -18 289 -32 156
-115 338 -217 480 -99 136 -306 305 -442 360 -48 20 -55 26 -55 51 0 50 -29
170 -59 240 -96 229 -302 364 -501 329z"/>
<path d="M72252 22718 c-31 -8 -51 -32 -39 -44 3 -3 19 2 36 10 57 30 115 14
66 -18 -55 -36 -104 -113 -105 -163 0 -27 18 -31 26 -5 26 82 83 152 123 152
22 0 34 -55 24 -113 -6 -37 9 -53 21 -21 11 28 6 114 -8 149 -21 50 -79 71
-144 53z"/>
<path d="M31552 22603 c-66 -36 -135 -103 -162 -158 -24 -50 -46 -155 -37
-178 3 -9 39 -33 79 -53 359 -180 700 -433 840 -622 22 -29 56 -88 76 -130 31
-65 36 -87 37 -147 0 -60 -4 -78 -30 -124 -51 -93 -150 -149 -310 -177 -61
-11 -127 -13 -275 -8 -202 7 -409 -4 -595 -32 -147 -21 -138 -15 -107 -82 20
-43 27 -78 30 -144 4 -77 2 -92 -22 -144 -31 -67 -46 -86 -100 -126 l-39 -28
-28 49 c-31 55 -75 95 -126 116 -20 8 -37 15 -38 15 -2 0 3 -24 11 -52 7 -29
14 -81 14 -115 l0 -63 -34 0 c-51 0 -191 26 -291 55 -112 32 -252 100 -327
159 -52 41 -143 141 -166 182 -8 15 -15 15 -63 4 -72 -17 -348 -111 -429 -146
-423 -181 -777 -461 -999 -789 -281 -415 -498 -971 -580 -1485 -140 -875 91
-1759 660 -2527 38 -51 73 -93 77 -93 5 0 33 13 63 29 60 33 197 75 276 85 52
7 53 6 67 -26 18 -43 52 -73 156 -140 47 -30 124 -80 173 -111 88 -57 127
-101 127 -144 0 -31 -39 -39 -81 -17 -19 9 -58 34 -88 55 -30 22 -58 39 -62
39 -8 0 13 -99 37 -173 16 -47 137 -216 241 -332 52 -58 59 -77 47 -109 -18
-48 -114 15 -266 172 -54 55 -98 99 -98 96 0 -11 100 -218 142 -296 27 -48 48
-95 48 -105 0 -24 -19 -43 -41 -43 -37 0 -134 132 -247 335 -29 53 -32 56 -26
25 10 -52 60 -200 94 -275 34 -76 35 -84 17 -110 -21 -28 -61 -12 -96 38 -37
55 -105 188 -147 292 -18 44 -33 76 -34 72 0 -17 22 -155 37 -225 14 -66 14
-74 -1 -97 -49 -75 -111 33 -175 301 -10 45 -31 115 -45 157 -38 109 -56 207
-63 330 -3 59 -7 106 -9 104 -3 -3 -27 -903 -45 -1712 -24 -1047 -14 -2757 26
-4210 15 -569 24 -946 25 -1056 l0 -67 38 -15 c47 -19 208 -63 282 -77 96 -19
296 -28 428 -19 151 10 458 71 483 96 8 8 29 176 64 503 9 85 34 304 56 485
37 313 63 535 74 635 2 25 27 232 54 460 28 228 73 613 101 855 28 242 69 591
91 775 22 184 55 470 74 635 19 165 55 471 79 680 25 209 62 523 83 699 21
181 40 310 44 300 14 -36 79 -703 138 -1414 41 -486 126 -1806 146 -2265 5
-121 10 -222 20 -395 7 -132 43 -922 50 -1110 3 -85 10 -261 15 -390 6 -129
10 -279 10 -332 0 -116 -5 -111 136 -133 55 -9 131 -22 169 -28 114 -19 567
-15 695 6 156 27 240 48 240 61 0 6 9 99 20 206 11 107 29 294 40 415 11 121
22 240 25 265 2 25 7 79 10 120 3 41 8 95 10 120 19 185 86 1123 99 1390 3 58
10 182 15 275 6 94 13 229 16 300 3 72 10 225 15 340 50 1098 44 2622 -15
3540 -23 365 -37 565 -45 649 -6 54 -10 103 -10 108 0 6 -15 -9 -34 -33 -71
-94 -192 -180 -370 -264 -283 -134 -462 -209 -652 -273 -207 -69 -337 -80
-407 -32 -18 13 -60 59 -92 103 -69 93 -102 117 -166 117 -54 0 -64 -9 -109
-100 -18 -36 -46 -80 -63 -98 -65 -68 -206 -94 -398 -73 -128 14 -379 61 -480
91 -314 91 -683 234 -694 268 -9 31 -54 306 -50 310 2 3 126 -21 275 -52 283
-59 644 -115 915 -142 217 -21 865 -30 1090 -15 298 21 679 74 905 127 102 24
322 83 328 89 2 2 -2 67 -7 146 -6 79 -20 281 -31 449 -79 1166 -198 1926
-393 2511 l-52 156 105 6 c276 16 630 126 925 289 362 200 659 488 796 773 67
139 93 250 92 395 -2 241 -86 424 -312 675 -420 468 -1104 773 -1841 820 -91
6 -97 6 -148 -22z"/>
<path d="M20872 22540 c-98 -20 -190 -95 -214 -173 -17 -56 -54 -81 -155 -106
-147 -37 -189 -70 -233 -187 -11 -30 -24 -90 -29 -133 -5 -44 -11 -84 -15 -89
-4 -6 -44 -33 -89 -61 -127 -77 -157 -116 -157 -206 0 -67 20 -118 64 -165 88
-94 93 -118 46 -263 -16 -52 -30 -112 -30 -134 0 -54 33 -99 100 -137 52 -29
61 -31 162 -31 59 0 111 5 116 10 6 6 3 51 -7 116 -13 89 -21 111 -45 140 -44
52 -59 96 -60 174 -1 126 63 213 164 223 63 6 100 -10 146 -60 34 -38 37 -40
62 -27 66 35 102 99 102 179 0 74 47 100 182 100 68 0 80 3 108 26 17 15 44
53 60 85 47 92 87 101 195 44 91 -48 149 -60 232 -45 36 6 67 9 70 7 6 -6 59
-212 73 -282 13 -67 88 -306 100 -318 4 -5 10 10 14 32 5 32 20 55 67 103 73
77 103 130 96 172 -3 18 -33 77 -67 133 -73 119 -80 154 -55 267 37 167 -27
275 -167 281 -55 2 -63 5 -71 26 -56 142 -73 154 -229 169 -152 15 -192 26
-308 80 -114 52 -162 63 -228 50z"/>
<path d="M53337 22071 c-37 -14 -16 -26 41 -23 47 3 61 0 75 -16 17 -18 16
-20 -29 -43 -58 -30 -107 -88 -102 -120 3 -22 7 -19 40 26 34 47 82 85 107 85
14 0 14 -68 0 -109 -13 -38 -3 -54 16 -27 17 23 30 116 21 152 -4 15 -20 39
-36 55 -23 23 -37 29 -72 28 -24 0 -51 -4 -61 -8z"/>
<path d="M30806 21748 c-45 -64 13 -176 91 -178 36 0 66 48 60 95 -11 80 -114
137 -151 83z"/>
<path d="M9220 21714 c-58 -18 -132 -73 -170 -125 -76 -106 -100 -274 -61
-429 12 -47 24 -94 27 -105 4 -16 -7 -26 -58 -53 -35 -18 -113 -73 -174 -122
-146 -117 -230 -172 -339 -225 -133 -65 -221 -90 -523 -151 -443 -89 -634
-143 -828 -234 -281 -132 -457 -325 -538 -590 -45 -150 -59 -265 -53 -455 6
-187 29 -306 88 -454 146 -365 474 -669 899 -835 157 -61 424 -126 517 -126
22 0 24 -3 19 -22 -52 -181 -124 -517 -166 -774 l-30 -189 -124 -245 c-77
-152 -138 -289 -162 -360 -34 -105 -38 -125 -38 -225 0 -133 21 -197 89 -273
l45 -50 -30 -66 c-86 -189 -181 -538 -229 -841 -22 -137 -62 -506 -80 -735
-16 -200 -40 -522 -46 -630 -37 -603 -128 -1254 -236 -1685 -204 -814 -553
-1518 -1048 -2118 -45 -53 -81 -102 -81 -109 0 -15 88 -152 164 -253 84 -112
238 -264 322 -318 63 -41 160 -87 183 -87 8 0 177 143 212 179 9 9 82 79 164
156 765 723 1321 1607 1639 2606 160 505 262 984 350 1657 14 101 26 186 29
188 7 7 80 -176 127 -316 117 -352 197 -769 245 -1285 85 -919 -47 -2132 -356
-3263 -28 -101 -48 -190 -45 -197 7 -19 132 -92 213 -124 129 -52 205 -66 368
-66 101 0 157 4 172 12 19 12 133 208 133 231 0 5 42 96 94 203 379 785 640
1569 785 2359 61 332 87 537 121 940 26 304 23 932 -6 1260 -55 631 -152 1156
-326 1758 -50 175 -60 217 -50 230 27 37 45 90 50 148 4 50 -2 87 -32 195 -57
212 -70 303 -70 489 0 211 23 331 111 587 36 103 76 227 91 274 l25 87 90 22
c237 58 502 169 682 285 115 74 168 117 285 232 87 85 106 98 210 146 595 275
1118 790 1319 1299 81 205 91 440 24 589 l-24 56 -117 6 c-126 6 -194 22 -284
68 -132 67 -198 25 -369 -233 -116 -174 -158 -227 -241 -299 -58 -50 -61 -52
-75 -33 -47 65 -47 65 -136 58 -98 -8 -190 5 -299 43 -72 25 -81 25 -120 12
-90 -28 -196 -164 -323 -412 l-70 -137 -114 0 c-220 0 -550 49 -726 109 -48
17 -90 33 -93 35 -2 3 2 16 11 30 47 70 147 343 162 441 l7 40 -26 -31 c-73
-90 -270 -206 -405 -239 -68 -16 -71 -19 -71 -46 0 -73 -31 -233 -51 -260 -80
-112 -283 -55 -463 129 -55 56 -52 33 -26 205 l10 68 -60 55 c-72 67 -136 161
-183 269 -35 79 -36 80 -74 83 -64 4 -82 11 -123 48 -67 61 -96 205 -57 281
23 44 79 84 127 90 84 12 177 -54 195 -137 4 -17 10 -32 14 -34 9 -6 185 82
256 130 91 59 210 178 270 268 95 144 143 285 152 449 3 59 9 107 13 107 4 0
28 -14 55 -32 85 -57 149 -146 250 -353 89 -183 148 -277 214 -339 38 -36 37
-40 16 132 -48 390 -157 612 -343 704 -62 31 -74 33 -167 33 -55 0 -111 -3
-125 -7 l-25 -7 -1 117 c-1 98 -5 130 -28 199 -52 161 -164 289 -290 333 -66
24 -170 25 -236 4z"/>
<path d="M16080 21354 c-36 -7 -236 -43 -445 -79 -209 -36 -506 -88 -660 -115
-741 -130 -935 -164 -1260 -220 -192 -34 -462 -81 -600 -105 -459 -81 -713
-125 -722 -125 -5 0 -20 -44 -33 -97 -12 -54 -33 -127 -45 -163 -13 -36 -26
-74 -30 -85 -12 -35 73 101 116 185 41 81 72 109 106 96 38 -15 -2 -155 -103
-361 -35 -71 -64 -135 -64 -141 0 -18 3965 -6 4001 12 61 31 113 115 144 233
86 332 -15 820 -197 952 -47 33 -94 36 -208 13z m226 -187 c222 -230 173 -932
-61 -873 -70 18 -157 155 -192 303 -25 110 -25 363 1 448 36 119 85 175 154
175 42 0 50 -4 98 -53z"/>
<path d="M43090 21267 c-32 -25 -50 -62 -50 -106 0 -58 20 -121 38 -121 9 0
12 6 7 18 -4 9 -9 43 -12 75 l-6 59 41 -21 c23 -12 54 -40 72 -66 33 -48 50
-57 50 -27 0 28 -64 96 -109 117 -23 10 -41 22 -41 27 0 4 16 16 35 25 28 14
41 14 71 5 44 -13 65 -5 39 15 -23 16 -115 17 -135 0z"/>
<path d="M53160 20788 c0 -95 -153 -234 -385 -350 -112 -57 -315 -138 -343
-138 -17 0 -27 19 -63 120 -23 66 -45 123 -49 125 -20 12 -132 -83 -183 -155
l-18 -25 -39 45 c-90 102 -121 224 -81 315 12 26 20 49 19 51 -8 7 -199 -80
-268 -122 -318 -192 -508 -417 -893 -1059 -378 -630 -563 -874 -852 -1122
-441 -380 -955 -565 -1720 -619 -49 -3 -91 -7 -93 -9 -1 -1 2 -22 7 -46 16
-66 13 -217 -5 -284 -8 -33 -26 -79 -39 -103 l-24 -42 70 -36 c284 -142 666
-249 1119 -310 155 -21 710 -31 863 -15 123 13 316 50 415 80 l63 19 -7 -221
c-10 -337 16 -620 72 -798 13 -42 31 -83 40 -90 13 -10 15 -26 10 -79 -7 -73
-33 -415 -41 -530 -19 -275 -40 -692 -55 -1095 -12 -308 -5 -2178 9 -2480 5
-121 13 -285 16 -365 6 -141 19 -419 30 -610 3 -52 8 -135 10 -185 18 -318
100 -1399 120 -1580 3 -22 11 -119 20 -215 37 -430 27 -393 122 -436 115 -52
162 -59 398 -58 231 1 301 10 504 64 79 22 81 23 81 54 0 29 53 792 65 921 2
33 12 164 20 290 9 127 38 529 65 895 27 366 52 701 55 745 3 44 25 341 50
660 24 319 47 623 50 675 4 52 22 293 41 535 44 571 52 676 68 913 41 579 61
805 68 777 4 -17 16 -133 28 -260 12 -126 24 -244 26 -261 5 -28 3 -32 -25
-37 -17 -4 -31 -13 -31 -20 0 -7 49 -355 110 -773 60 -417 139 -966 175 -1219
47 -323 71 -463 81 -471 9 -8 24 -79 44 -210 120 -813 229 -1496 430 -2703 44
-266 80 -485 80 -486 0 -7 125 -47 190 -60 108 -23 340 -30 503 -16 125 11
393 54 404 64 2 3 9 225 14 493 10 495 5 1792 -11 2589 -5 236 -7 431 -6 433
3 2 824 122 1653 240 144 21 264 40 266 43 3 2 -15 139 -38 304 -201 1408
-307 2133 -314 2151 -5 11 -51 44 -101 73 l-92 52 -426 -61 c-344 -50 -427
-59 -434 -48 -5 7 -18 30 -28 50 -26 48 -100 139 -152 186 -42 38 -150 113
-155 108 -3 -3 -39 -130 -48 -171 -4 -16 7 -28 49 -54 54 -34 174 -146 165
-155 -4 -5 -422 -66 -426 -63 -1 2 -11 77 -12 105 -1 8 -9 10 -24 7 -15 -4
-32 1 -49 14 -25 20 -27 20 -57 4 -29 -17 -32 -17 -64 0 -27 15 -39 17 -55 8
-32 -17 -56 -13 -81 13 -21 23 -22 25 -11 157 12 150 20 202 57 339 19 72 77
243 87 257 1 1 38 -10 81 -24 71 -24 96 -27 221 -28 102 0 145 4 157 13 23 19
110 230 178 432 127 380 206 758 244 1180 19 203 21 687 5 880 -59 694 -241
1310 -533 1795 -196 328 -457 606 -737 788 -176 114 -460 236 -612 263 -38 6
-38 6 -38 -28z m1435 -7352 c50 -21 70 -62 85 -175 17 -126 10 -175 -28 -213
-37 -38 -130 -50 -180 -24 -45 23 -60 52 -77 147 -22 122 -20 179 8 220 36 54
122 74 192 45z"/>
<path d="M44653 20585 c-101 -104 -246 -196 -368 -235 -22 -7 -43 -17 -46 -22
-3 -4 -6 -50 -8 -101 l-2 -92 68 -37 c37 -20 113 -53 168 -73 120 -45 197 -82
289 -142 37 -24 70 -42 72 -41 9 10 -87 803 -99 814 -1 1 -34 -31 -74 -71z"/>
<path d="M11765 20600 c-126 -23 -524 -93 -759 -134 -205 -36 -213 -40 -223
-137 -6 -66 9 -128 43 -169 l26 -30 409 0 c321 0 409 3 409 13 0 6 -9 45 -20
86 -26 95 -26 171 -2 201 16 19 22 21 40 11 29 -15 36 -32 56 -120 25 -110 29
-114 60 -53 50 98 69 157 80 255 11 87 11 97 -3 96 -9 -1 -61 -9 -116 -19z"/>
<path d="M43605 20100 c4 -14 30 -74 59 -135 76 -158 126 -363 163 -675 22
-188 24 -744 4 -1004 -14 -171 -14 -179 5 -214 28 -52 128 -157 200 -208 220
-157 644 -274 1088 -300 l116 -7 1 74 c0 41 2 85 4 99 2 14 7 133 11 265 8
278 8 276 -76 499 -145 382 -332 754 -535 1061 -164 249 -425 563 -425 512 0
-37 -32 -79 -73 -98 -121 -54 -396 9 -511 119 -35 34 -38 35 -31 12z"/>
<path d="M20461 20044 c-258 -76 -502 -247 -663 -464 -150 -202 -248 -454
-295 -760 -35 -229 -19 -653 32 -874 8 -33 10 -63 6 -66 -5 -3 -8 -41 -7 -85
0 -44 -7 -143 -16 -220 -58 -466 -54 -1006 12 -1454 20 -139 22 -141 110 -186
168 -84 642 -189 1120 -246 271 -33 654 -33 905 -1 554 72 798 149 1040 330
102 77 137 124 161 225 9 37 20 67 24 67 4 0 15 -10 26 -21 38 -42 372 -316
483 -394 l54 -39 61 32 c113 58 204 157 240 258 l14 41 -55 84 c-102 155 -226
429 -372 819 -52 140 -196 546 -225 638 -10 28 -20 52 -23 52 -22 0 -139 -80
-165 -113 -69 -88 -227 -273 -261 -305 -27 -26 -40 -32 -57 -27 -36 11 -133
116 -167 180 -34 66 -73 183 -73 222 0 19 34 59 138 161 l138 137 33 95 c41
116 66 165 124 253 l45 67 -19 50 c-50 131 -143 344 -234 535 -38 77 -168 314
-213 385 -127 200 -308 398 -447 488 -80 52 -198 104 -267 117 l-36 7 15 -44
c19 -55 12 -138 -17 -201 -22 -46 -94 -137 -102 -127 -73 95 -143 160 -173
160 -6 0 -27 -48 -45 -106 -19 -59 -41 -109 -48 -111 -18 -8 -108 22 -242 79
-246 105 -413 242 -436 356 -8 38 -13 39 -123 6z"/>
<path d="M11702 19775 c-17 -38 -15 -72 7 -94 62 -62 194 -106 299 -99 69 4
82 14 82 63 0 45 -13 58 -48 50 -65 -14 -200 27 -284 86 -34 25 -43 24 -56 -6z"/>
<path d="M23819 19306 c-2 -2 -112 -7 -244 -11 -132 -4 -269 -10 -304 -14
l-64 -6 -99 -305 c-55 -168 -123 -378 -153 -467 -29 -90 -52 -163 -51 -163 10
0 168 61 195 74 45 24 188 168 245 249 41 57 53 68 74 65 13 -2 31 -13 39 -24
12 -19 10 -28 -22 -89 -19 -38 -33 -70 -31 -72 2 -2 21 22 42 54 45 68 74 78
100 38 17 -26 17 -28 -9 -81 l-27 -54 25 16 c21 14 31 15 50 6 34 -16 32 -56
-5 -112 -35 -53 -36 -56 -10 -63 55 -14 -2 -125 -142 -273 l-80 -84 74 0 c44
0 81 5 90 13 9 6 86 226 173 492 86 264 176 541 201 615 l44 134 -32 33 c-27
28 -65 42 -79 29z"/>
<path d="M43737 16293 c-78 -586 -163 -1113 -184 -1134 -24 -24 -251 -42 -523
-43 -317 -1 -467 15 -708 75 -46 11 -86 18 -89 15 -25 -25 -36 -961 -14 -1266
76 -1091 83 -2599 16 -3775 -31 -537 -83 -1100 -141 -1524 -19 -139 -33 -255
-32 -256 2 -2 42 -15 90 -29 203 -62 443 -89 599 -67 93 13 202 45 217 64 5 7
28 111 52 232 42 219 77 382 290 1338 396 1783 617 3026 745 4195 14 124 27
227 29 229 7 7 11 -15 75 -327 219 -1071 399 -2429 461 -3455 6 -99 15 -251
21 -338 17 -276 23 -1037 10 -1420 -7 -197 -14 -364 -17 -371 -3 -7 3 -16 13
-19 10 -2 65 -19 123 -35 112 -33 296 -67 420 -77 144 -12 342 30 413 88 31
25 33 36 92 512 182 1478 256 2726 240 4050 -3 270 -8 522 -10 560 -2 39 -9
140 -14 225 -6 85 -15 252 -21 370 -12 229 -48 672 -80 987 -11 106 -20 202
-20 214 0 16 -4 20 -17 14 -39 -14 -121 -33 -179 -40 l-61 -7 -7 154 c-8 167
-9 178 -31 411 -26 262 -81 627 -98 644 -9 8 -46 4 -152 -18 -477 -98 -1075
-87 -1465 27 -13 3 -20 -29 -43 -203z"/>
<path d="M22776 15766 c-72 -152 -538 -446 -708 -446 -72 0 -206 94 -273 189
-15 23 -31 41 -35 41 -4 0 -10 -17 -14 -37 -8 -49 -55 -149 -91 -191 -48 -57
-70 -63 -228 -61 -561 6 -1681 263 -1869 427 l-36 32 -6 -47 c-6 -48 -40 -523
-51 -708 -3 -55 -7 -129 -10 -165 -2 -36 -7 -108 -10 -160 -12 -230 -25 -464
-30 -570 -3 -63 -10 -207 -15 -320 -47 -977 -90 -3250 -76 -3980 4 -179 7
-556 8 -837 0 -282 4 -513 7 -513 3 0 66 -11 140 -25 280 -51 598 -57 784 -16
116 27 173 52 180 82 12 47 108 643 192 1184 179 1166 346 2240 395 2545 113
706 169 1054 230 1415 87 514 92 542 96 530 3 -10 98 -925 129 -1240 127
-1309 199 -2144 285 -3290 11 -148 22 -308 25 -355 4 -47 8 -105 10 -130 3
-25 12 -148 20 -275 24 -366 27 -400 34 -406 13 -14 251 -69 359 -84 131 -18
308 -20 418 -4 86 12 199 49 255 84 42 27 35 -13 79 430 72 721 113 1270 142
1900 12 260 18 1387 9 1775 -16 715 -93 1688 -192 2415 -51 377 -123 842 -131
850 -2 2 -12 -16 -22 -39z"/>
<path d="M5727 9150 c-115 -50 -212 -122 -261 -192 l-39 -56 89 -110 c152
-188 721 -885 751 -920 35 -41 90 -53 129 -27 14 9 38 42 52 73 22 47 27 75
30 159 l4 103 -28 12 c-18 8 -71 13 -134 13 -105 0 -107 1 -101 34 4 27 118
39 196 21 22 -5 41 -8 42 -6 2 2 -5 29 -15 61 l-17 59 -55 12 c-72 17 -146 17
-201 1 -52 -16 -69 -12 -69 14 0 41 148 72 240 50 24 -5 46 -9 47 -7 2 2 -14
34 -35 72 l-37 69 -75 13 c-72 12 -125 9 -232 -14 -31 -7 -48 17 -29 40 16 19
111 36 203 36 43 0 78 2 78 6 0 17 -63 92 -158 189 -73 74 -133 147 -182 223
-43 65 -81 112 -90 111 -8 0 -54 -17 -103 -39z"/>
<path d="M44840 8189 c0 -35 -9 -145 -20 -244 -11 -99 -20 -210 -20 -247 l0
-68 850 0 c942 0 897 -3 925 64 22 51 3 101 -59 162 -96 94 -205 112 -564 93
-577 -29 -819 25 -1039 234 l-73 70 0 -64z"/>
<path d="M70862 8243 l-43 -4 73 -78 c103 -110 152 -213 116 -249 -23 -23 -34
-12 -78 74 -32 64 -64 106 -122 166 l-78 80 -97 -21 c-53 -11 -98 -23 -101
-26 -3 -2 8 -15 24 -27 73 -57 159 -175 170 -235 13 -68 -45 -83 -66 -17 -20
61 -89 152 -154 203 l-64 50 -53 -20 c-100 -38 -98 -34 -34 -91 88 -79 143
-195 100 -212 -25 -9 -40 3 -63 49 -26 55 -85 120 -135 152 l-38 24 -69 -47
c-163 -109 -234 -239 -185 -334 32 -63 -8 -60 910 -60 l836 0 22 48 c19 42 22
64 22 192 0 81 -6 170 -13 201 -23 103 -82 166 -158 170 -16 1 -128 -2 -249
-6 -184 -6 -232 -5 -295 9 -73 16 -91 16 -178 9z"/>
<path d="M74124 8231 c-183 -67 -322 -265 -312 -443 4 -72 20 -104 72 -142 26
-20 42 -21 402 -24 332 -2 378 -1 409 14 98 46 116 196 43 351 -40 86 -141
189 -223 229 -56 27 -69 29 -200 31 -116 2 -149 -1 -191 -16z m321 -77 c77
-19 119 -44 123 -72 5 -33 -20 -36 -85 -11 -82 33 -245 33 -357 1 -60 -17 -82
-20 -92 -11 -24 20 -16 38 27 60 90 45 276 62 384 33z"/>
<path d="M50962 8223 l-74 -4 70 -73 c70 -74 146 -203 136 -231 -7 -16 -32
-27 -45 -19 -5 3 -21 29 -35 57 -27 53 -120 177 -133 177 -4 0 -26 18 -49 41
-47 45 -33 44 -175 12 l-68 -15 71 -65 c52 -48 79 -83 106 -139 31 -61 35 -76
24 -89 -24 -29 -47 -17 -73 38 -33 72 -76 122 -153 180 l-65 49 -69 -28 c-39
-15 -70 -30 -70 -33 1 -3 20 -20 44 -38 56 -41 128 -147 124 -182 -2 -17 -10
-27 -24 -29 -16 -2 -29 11 -57 56 -40 65 -91 115 -143 139 -33 16 -33 16 -99
-27 -82 -53 -166 -135 -189 -184 -35 -74 -18 -138 47 -173 30 -17 86 -18 762
-21 402 -2 785 0 852 3 l122 7 22 56 c19 51 21 72 17 197 -6 168 -27 240 -84
294 l-37 34 -111 -7 c-172 -11 -387 -7 -478 9 -46 8 -85 14 -88 13 -3 -1 -38
-4 -78 -5z"/>
<path d="M53807 8219 c-123 -29 -248 -132 -308 -255 -28 -57 -35 -82 -37 -149
-3 -71 -1 -84 20 -114 49 -73 42 -72 469 -71 333 0 386 2 417 17 123 58 99
286 -46 439 -102 108 -196 144 -364 143 -62 -1 -130 -5 -151 -10z m356 -101
c62 -29 78 -51 55 -74 -12 -13 -20 -12 -60 6 -96 42 -193 44 -374 5 -90 -20
-114 -16 -114 15 0 23 18 32 125 61 55 15 96 18 190 16 105 -3 127 -6 178 -29z"/>
<path d="M19781 8199 c-130 -22 -244 -108 -297 -224 -30 -65 -58 -214 -50
-261 4 -17 16 -44 27 -58 44 -55 48 -56 439 -56 404 0 410 1 451 67 19 31 21
44 16 117 -16 232 -147 380 -369 416 -73 12 -141 11 -217 -1z m224 -80 c32 -6
83 -20 113 -31 48 -18 53 -23 50 -46 -4 -32 -12 -33 -122 -3 -107 28 -227 28
-304 0 -81 -30 -96 -30 -100 2 -3 22 3 29 35 45 90 43 209 55 328 33z"/>
<path d="M22088 8188 c-75 -116 -104 -420 -50 -540 l21 -48 820 0 821 0 30 28
c47 41 50 92 12 168 -38 75 -94 138 -169 191 l-59 41 -54 -36 c-37 -25 -69
-58 -98 -102 -60 -92 -60 -92 -82 -80 -27 15 -25 34 9 94 33 57 69 98 119 137
l34 26 -72 27 -71 26 -43 -29 c-65 -45 -141 -134 -167 -195 -24 -58 -42 -74
-65 -55 -21 17 -17 39 18 110 20 40 57 88 99 130 l67 66 -100 18 -100 17 -77
-78 c-56 -57 -88 -101 -116 -156 -39 -80 -59 -94 -85 -63 -19 23 54 163 126
243 31 35 54 65 52 68 -9 8 -182 6 -328 -4 -133 -10 -414 -1 -461 13 -10 3
-22 -4 -31 -17z"/>
<path d="M29080 8192 c-160 -42 -257 -150 -295 -327 -27 -128 -14 -194 48
-239 27 -20 43 -21 388 -24 341 -3 361 -2 404 17 62 27 90 87 80 170 -8 71
-31 154 -57 205 -29 57 -106 135 -161 163 -104 52 -282 68 -407 35z"/>
<path d="M31302 8176 c-69 -102 -82 -418 -22 -536 l20 -40 803 0 c744 0 805 1
837 18 66 32 77 99 33 190 -56 113 -175 214 -333 281 -160 68 -415 115 -610
111 -298 -6 -570 -4 -635 3 l-70 7 -23 -34z"/>
<path d="M9067 8113 c-50 -148 -60 -309 -23 -397 l14 -33 398 -7 c220 -3 526
-7 682 -7 269 -2 285 -1 310 18 66 49 46 137 -54 243 -34 36 -75 73 -91 82
-29 17 -30 16 -79 -20 -28 -22 -63 -62 -83 -95 -35 -59 -50 -68 -71 -42 -17
21 31 105 92 160 27 24 45 46 40 49 -4 2 -32 14 -60 25 l-52 21 -70 -67 c-44
-42 -79 -85 -95 -119 -18 -37 -31 -54 -44 -54 -11 0 -21 6 -24 13 -13 37 64
164 130 214 32 25 33 27 15 34 -12 5 -48 13 -82 19 l-61 11 -64 -62 c-40 -38
-77 -87 -100 -131 -26 -49 -42 -68 -53 -66 -47 9 -3 117 85 209 l54 57 -56 7
c-31 4 -96 2 -144 -4 -139 -18 -333 -12 -462 15 -24 4 -27 0 -52 -73z"/>
<path d="M42445 8099 c-118 -18 -279 -88 -314 -138 -25 -34 -61 -154 -61 -200
0 -20 9 -51 20 -69 38 -62 49 -63 466 -60 l376 3 35 39 c35 38 35 39 31 110
-4 46 -15 92 -32 132 -26 58 -31 63 -104 101 -138 74 -284 102 -417 82z"/>
</g>
</svg>
