<?xml version="1.0" standalone="no"?>
<!DOCTYPE svg PUBLIC "-//W3C//DTD SVG 20010904//EN"
 "http://www.w3.org/TR/2001/REC-SVG-20010904/DTD/svg10.dtd">
<svg version="1.0" xmlns="http://www.w3.org/2000/svg"
 width="576.000000pt" height="240.000000pt" viewBox="0 0 576.000000 240.000000"
 preserveAspectRatio="xMidYMid meet">
<metadata>
Created by potrace 1.16, written by Peter Selinger 2001-2019
</metadata>
<g transform="translate(0.000000,240.000000) scale(0.100000,-0.100000)"
fill="#000000" stroke="none">
<path d="M4230 1941 c-235 -34 -445 -189 -542 -399 -43 -93 -61 -183 -61 -302
0 -91 4 -117 32 -199 40 -120 87 -197 171 -281 156 -158 383 -234 596 -198 49
8 118 27 154 41 56 23 66 24 73 11 5 -8 16 -13 26 -9 22 7 92 -85 101 -135 5
-23 60 -108 165 -252 l159 -218 133 0 133 0 -82 113 c-321 439 -343 467 -363
468 -26 0 -111 117 -96 132 6 6 7 16 0 28 -7 14 2 32 43 86 101 133 142 257
142 428 1 194 -62 344 -204 485 -129 129 -267 192 -447 203 -43 3 -103 2 -133
-2z m244 -111 c169 -43 311 -158 384 -311 52 -107 66 -182 59 -307 -6 -120
-32 -199 -99 -298 -166 -248 -495 -336 -761 -203 -114 57 -206 146 -262 251
-49 93 -65 148 -71 253 -16 249 116 473 341 579 121 58 273 71 409 36z"/>
<path d="M4273 1445 c-13 -9 -28 -25 -34 -36 -21 -40 24 -99 77 -99 23 0 64
47 64 73 0 54 -65 92 -107 62z"/>
<path d="M4337 1299 c-10 -6 -35 -8 -56 -4 -52 9 -71 -20 -71 -110 0 -98 6
-105 93 -105 40 0 83 6 97 13 23 12 25 18 25 84 0 57 -4 77 -21 100 -24 32
-41 37 -67 22z"/>
<path d="M4471 1254 c-15 -19 -21 -41 -21 -80 0 -76 15 -88 99 -79 36 4 69 9
74 12 4 2 7 31 7 63 0 47 -5 64 -23 85 -20 24 -25 25 -48 15 -20 -9 -32 -9
-47 -1 -17 9 -24 7 -41 -15z"/>
<path d="M4024 1225 c-16 -22 -19 -122 -4 -145 7 -11 25 -14 77 -12 37 2 73 8
80 14 19 15 16 87 -5 128 -17 34 -19 35 -76 35 -47 0 -61 -4 -72 -20z"/>
<path d="M520 1310 c-17 -17 -20 -33 -20 -110 0 -147 -159 -130 1238 -130
1149 0 1200 1 1215 18 24 26 24 203 1 226 -14 14 -138 16 -1215 16 -1186 0
-1199 0 -1219 -20z m2165 -110 l0 -115 -1063 -3 c-727 -1 -1069 1 -1082 8 -18
10 -20 22 -20 110 0 84 3 101 18 109 11 7 368 10 1082 8 l1065 -2 0 -115z"/>
</g>
</svg>
