<?xml version="1.0" standalone="no"?>
<!DOCTYPE svg PUBLIC "-//W3C//DTD SVG 20010904//EN"
 "http://www.w3.org/TR/2001/REC-SVG-20010904/DTD/svg10.dtd">
<svg version="1.0" xmlns="http://www.w3.org/2000/svg"
 width="64.000000pt" height="64.000000pt" viewBox="0 0 64.000000 64.000000"
 preserveAspectRatio="xMidYMid meet">

<g transform="translate(0.000000,64.000000) scale(0.100000,-0.100000)"
fill="#000000" stroke="none">
<path d="M248 584 c-32 -17 -58 -62 -58 -99 0 -33 16 -24 25 14 10 47 49 76
102 76 38 0 49 -5 74 -33 25 -27 29 -41 29 -87 l0 -55 -133 0 c-175 0 -167 9
-167 -182 0 -193 -10 -183 200 -183 211 0 200 -10 200 185 0 130 -2 149 -18
163 -10 10 -25 17 -34 17 -11 0 -17 15 -22 56 -8 70 -28 109 -66 129 -37 19
-97 19 -132 -1z m234 -221 c16 -14 18 -33 18 -140 0 -68 -5 -133 -10 -144 -10
-18 -23 -19 -170 -19 -147 0 -160 1 -170 19 -5 11 -10 75 -10 142 0 166 -8
159 178 159 121 0 148 -3 164 -17z"/>
<path d="M296 247 c-14 -10 -16 -21 -10 -64 11 -84 57 -84 68 0 5 42 3 54 -11
65 -21 15 -25 15 -47 -1z m39 -26 c7 -12 -12 -24 -25 -16 -11 7 -4 25 10 25 5
0 11 -4 15 -9z"/>
</g>
</svg>
